<?xml version="1.0" standalone="no"?>
<!DOCTYPE svg PUBLIC "-//W3C//DTD SVG 20010904//EN"
 "http://www.w3.org/TR/2001/REC-SVG-20010904/DTD/svg10.dtd">
<svg version="1.0" xmlns="http://www.w3.org/2000/svg"
 width="512.000000pt" height="512.000000pt" viewBox="0 0 512.000000 512.000000"
 preserveAspectRatio="xMidYMid meet">
<metadata>
Created by potrace 1.16, written by Peter Selinger 2001-2019
</metadata>
<g transform="translate(0.000000,512.000000) scale(0.100000,-0.100000)"
fill="#000000" stroke="none">
<path d="M1304 5101 c-50 -30 -102 -87 -129 -141 -43 -84 -55 -154 -62 -340
-5 -171 -6 -176 -32 -203 -23 -25 -26 -36 -24 -94 1 -55 5 -69 27 -92 25 -26
26 -31 26 -153 0 -97 -4 -135 -18 -169 -15 -38 -17 -67 -12 -223 4 -131 8
-180 18 -184 16 -5 17 -143 0 -160 -7 -7 -42 -12 -86 -12 -101 0 -145 -15
-191 -66 -95 -102 -79 -243 41 -370 64 -68 118 -106 189 -134 30 -12 57 -27
61 -33 10 -15 10 -79 0 -93 -4 -6 -59 -16 -122 -21 l-114 -10 -34 -39 c-73
-84 -87 -120 -87 -219 1 -72 7 -112 34 -200 35 -119 60 -168 94 -187 12 -7 64
-15 114 -18 51 -3 97 -10 103 -16 7 -7 11 -120 12 -332 1 -316 1 -321 -22
-357 -12 -20 -53 -127 -90 -238 -38 -111 -90 -263 -116 -337 -42 -118 -48
-145 -48 -215 0 -64 5 -89 23 -125 43 -83 77 -107 180 -124 72 -12 65 -1 91
-133 12 -62 13 -63 45 -63 l32 0 -21 58 -21 57 -3 2312 c-3 2498 -5 2384 49
2498 13 27 41 67 62 88 38 38 136 90 187 100 14 2 -9 5 -50 6 -58 1 -82 -3
-106 -18z m-179 -1386 c0 -85 -3 -155 -7 -155 -5 0 -8 70 -8 155 0 85 3 155 8
155 4 0 7 -70 7 -155z m-17 -457 c7 -7 12 -35 12 -63 0 -39 -5 -56 -20 -70
-17 -16 -20 -31 -20 -107 0 -75 3 -91 20 -108 21 -21 27 -74 10 -100 -14 -23
-123 34 -192 101 -126 123 -143 267 -39 336 29 20 47 23 125 23 58 0 96 -4
104 -12z m-47 -714 c50 -8 59 -33 59 -159 0 -129 -7 -150 -54 -159 -56 -11
-166 4 -188 26 -26 26 -25 166 1 224 22 48 32 56 86 65 57 9 57 9 96 3z m-245
-174 c-9 -69 7 -123 47 -154 17 -14 27 -26 21 -26 -25 0 -64 43 -75 82 -10 39
-5 148 8 148 3 0 3 -23 -1 -50z m76 -222 c-12 -12 -44 -7 -49 8 -2 7 8 9 27 6
21 -3 28 -8 22 -14z m118 -103 c82 -11 90 -14 90 -37 0 -20 -3 -21 -86 -14
-98 7 -118 15 -139 56 -24 47 -18 51 37 25 29 -14 73 -27 98 -30z m110 -1332
c0 -219 -3 -409 -7 -422 -6 -22 -10 -23 -69 -19 -56 3 -68 8 -99 38 -42 41
-59 96 -51 163 4 26 40 141 80 255 41 114 77 223 81 242 12 55 46 140 56 140
5 0 9 -160 9 -397z"/>
<path d="M3752 5096 c117 -48 207 -136 244 -240 18 -49 19 -136 22 -2376 3
-2326 2 -2427 -29 -2446 -12 -7 -11 13 1 56 16 55 15 4650 -1 4715 -38 158
-135 252 -292 285 -91 18 -2162 20 -2237 1 -74 -18 -164 -67 -199 -107 -37
-42 -70 -129 -81 -218 -12 -90 -12 -4292 0 -4511 5 -105 14 -176 25 -208 16
-45 18 -47 57 -47 l39 0 -20 26 c-12 15 -29 50 -39 78 -16 48 -17 192 -20
2341 -2 1686 0 2306 8 2350 30 155 111 229 276 255 49 8 395 10 1115 8 1038
-3 1044 -4 1107 -25 81 -27 136 -65 173 -119 63 -92 59 67 57 -2470 l-3 -2309
-32 -67 -32 -68 74 0 74 0 12 38 c9 26 15 182 19 527 4 270 7 491 8 492 1 1
26 -9 55 -22 65 -31 156 -34 207 -7 42 22 80 90 80 143 0 52 -32 151 -102 314
-112 262 -148 375 -148 468 l0 34 98 17 c119 21 185 50 234 104 46 50 62 107
56 194 -8 106 -53 167 -196 266 -53 36 -57 37 -166 42 l-111 5 0 70 0 70 69
17 c132 32 161 76 160 243 0 179 -32 225 -162 240 -74 8 -72 4 -73 160 -2
1211 -4 1370 -22 1428 -33 112 -73 169 -163 233 -59 42 -65 44 -130 44 l-69 0
57 -24z m481 -1924 c21 -23 37 -106 37 -194 0 -62 -3 -72 -26 -93 -51 -47
-137 -45 -155 3 -15 40 -8 265 10 285 20 24 112 23 134 -1z m77 -627 c16 -8
56 -37 88 -64 130 -108 151 -259 48 -349 -48 -42 -81 -49 -120 -28 -17 9 -44
20 -61 25 l-30 8 53 23 c29 12 63 35 76 51 34 39 50 116 37 166 -26 94 -91
135 -228 141 -83 4 -93 6 -93 23 0 17 9 19 100 19 70 0 110 -5 130 -15z m-170
-485 c51 -44 36 -54 -23 -15 l-37 26 2 187 2 187 6 -173 5 -172 45 -40z m198
344 c32 -37 31 -116 -3 -149 -36 -37 -97 -35 -136 4 -36 37 -41 104 -9 144 34
43 108 44 148 1z m-124 -299 c37 -14 79 -25 94 -25 24 -1 25 -2 8 -11 -10 -7
-35 -8 -58 -5 -46 7 -118 42 -118 56 0 13 -2 14 74 -15z m-92 -215 c7 -99 34
-183 137 -422 130 -304 130 -383 2 -396 -40 -4 -58 1 -101 24 -95 52 -90 25
-90 449 0 205 3 387 6 404 5 22 12 31 23 29 13 -3 17 -21 23 -88z"/>
<path d="M2566 4997 c-16 -12 -16 -14 -2 -26 19 -16 66 -7 66 13 0 13 -20 26
-39 26 -4 0 -15 -6 -25 -13z"/>
<path d="M2057 4892 c-35 -39 -12 -112 34 -112 25 0 69 43 69 68 0 26 -37 62
-64 62 -13 0 -30 -8 -39 -18z"/>
<path d="M2400 4872 c-51 -3 -75 -16 -64 -34 3 -4 117 -8 255 -8 213 0 249 2
249 15 0 8 -10 17 -22 20 -28 6 -341 11 -418 7z"/>
<path d="M1242 4558 l3 -23 725 -6 c399 -3 997 -8 1330 -10 l605 -4 0 25 0 25
-430 6 c-236 3 -836 7 -1333 8 l-903 1 3 -22z"/>
<path d="M1605 4500 c-144 -8 -306 -30 -270 -38 11 -2 85 -2 165 1 140 4 250
22 250 39 0 4 -1 7 -2 6 -2 0 -66 -4 -143 -8z"/>
<path d="M1620 4409 c-101 -9 -270 -39 -270 -46 0 -17 433 20 540 46 46 12
-150 12 -270 0z"/>
<path d="M2465 4413 c-44 -3 -197 -21 -665 -79 -69 -8 -141 -19 -160 -23 -52
-13 88 -13 215 -1 55 6 224 21 376 35 266 24 397 43 449 64 19 7 2 9 -70 9
-52 -1 -117 -3 -145 -5z"/>
<path d="M2620 4324 c-219 -21 -313 -49 -130 -39 113 6 331 32 339 41 5 4
-153 3 -209 -2z"/>
<path d="M3460 4254 c-145 -17 -309 -44 -335 -55 -26 -11 156 -2 350 17 145
14 325 41 334 50 10 9 -242 1 -349 -12z"/>
<path d="M2015 4253 c-69 -6 -258 -33 -295 -42 -30 -8 -24 -9 40 -10 80 -1
288 21 410 43 l75 14 -95 -1 c-52 0 -113 -2 -135 -4z"/>
<path d="M2810 4224 c-247 -17 -577 -56 -590 -71 -3 -3 63 -3 145 1 209 8 585
53 603 71 5 5 -72 4 -158 -1z"/>
<path d="M3569 4159 c-111 -9 -390 -47 -398 -55 -8 -8 184 -4 294 6 138 13
297 39 310 51 11 10 -53 10 -206 -2z"/>
<path d="M1755 4043 c-152 -13 -335 -42 -335 -53 0 -5 12 -7 28 -5 15 2 86 6
158 10 127 5 380 37 392 49 5 6 -171 5 -243 -1z"/>
<path d="M2825 4020 c-106 -8 -262 -31 -335 -50 -53 -15 180 -3 303 15 165 24
180 27 165 36 -7 5 -15 8 -18 7 -3 0 -54 -4 -115 -8z"/>
<path d="M1877 3949 c-116 -9 -308 -36 -357 -49 -24 -7 18 -8 135 -5 163 4
472 36 525 55 32 11 -166 10 -303 -1z"/>
<path d="M2940 3923 c-241 -16 -536 -54 -570 -73 -44 -25 559 27 746 64 l69
14 -100 -1 c-55 0 -120 -2 -145 -4z"/>
<path d="M3505 3783 c-156 -12 -475 -59 -509 -74 -28 -12 195 -2 384 17 158
16 400 51 408 59 6 5 -214 4 -283 -2z"/>
<path d="M2572 3393 c3 -16 -8 -18 -93 -21 -88 -2 -96 -4 -92 -21 4 -15 -8
-20 -76 -35 -75 -16 -80 -19 -70 -37 8 -15 6 -21 -8 -26 -59 -21 -83 -33 -83
-45 0 -7 -9 -19 -20 -26 -30 -18 -24 -29 13 -24 l32 4 -49 -43 c-50 -44 -86
-107 -68 -118 7 -4 5 -26 -4 -61 -18 -66 -12 -123 22 -238 23 -75 24 -87 13
-141 -16 -77 0 -175 41 -253 25 -49 30 -70 30 -129 0 -56 6 -85 26 -130 22
-48 26 -69 22 -120 -5 -73 -14 -82 -101 -99 -39 -7 -80 -24 -112 -46 -27 -18
-99 -56 -160 -82 -60 -27 -151 -69 -200 -94 -50 -25 -110 -52 -134 -59 -33
-10 -53 -25 -82 -63 -21 -28 -57 -73 -78 -101 -22 -27 -40 -53 -40 -57 -1 -5
577 -9 1283 -10 995 -2 1283 0 1277 9 -3 7 -40 52 -82 100 -72 83 -81 90 -160
122 -46 18 -131 59 -189 91 -58 32 -134 72 -170 90 -36 18 -90 47 -120 66 -30
18 -73 37 -95 43 -65 17 -78 31 -83 95 -4 46 0 67 21 114 16 36 28 86 32 136
6 56 17 98 37 142 36 77 49 161 36 232 -8 47 -6 64 21 145 16 51 33 112 36
137 13 92 -37 212 -102 247 -18 10 -33 21 -33 26 0 4 6 5 13 2 6 -4 2 2 -10
12 -12 10 -29 36 -38 58 -24 60 -61 92 -158 141 -77 39 -88 42 -82 25 3 -12 3
-21 -1 -21 -3 0 -39 18 -79 40 -82 45 -87 47 -83 23z m0 -97 c38 -16 61 -20
72 -14 12 7 24 1 46 -21 32 -32 43 -66 12 -38 -23 21 -70 38 -76 28 -3 -4 -1
-22 4 -40 5 -17 7 -31 5 -31 -2 0 -16 12 -32 28 -15 15 -53 49 -83 76 -59 53
-55 54 52 12z m-87 -43 c19 -9 37 -26 41 -37 16 -58 15 -61 -12 -27 -15 19
-55 47 -88 63 l-61 29 42 -6 c24 -3 58 -13 78 -22z m393 -44 c-3 -8 -7 -3 -11
10 -4 17 -3 21 5 13 5 -5 8 -16 6 -23z m192 -200 c0 -6 -4 -7 -10 -4 -5 3 -10
11 -10 16 0 6 5 7 10 4 6 -3 10 -11 10 -16z m-518 -19 c20 -10 38 -17 41 -14
2 2 40 11 83 18 80 14 151 9 193 -13 25 -14 70 -69 83 -100 13 -34 40 -404 33
-456 -13 -91 -26 -134 -41 -128 -10 4 -14 -4 -14 -31 0 -40 -19 -84 -44 -105
-14 -12 -16 -8 -16 36 0 60 -20 89 -86 128 -58 34 -68 27 -14 -10 22 -15 40
-29 40 -32 0 -8 -67 31 -92 54 -26 25 -27 25 -68 9 -57 -23 -87 -20 -115 10
-14 15 -25 22 -25 17 0 -6 -34 -28 -76 -49 -82 -42 -114 -77 -114 -129 l-1
-30 -25 29 c-22 25 -25 36 -20 68 7 45 -9 52 -25 11 -14 -38 -24 -19 -39 80
-9 53 -10 116 -5 200 4 67 8 156 9 198 2 42 8 97 15 122 15 54 71 112 127 133
49 18 145 10 196 -16z m-413 -482 c-1 -24 -1 -61 1 -83 l3 -40 7 50 c6 44 7
39 8 -35 l0 -85 -16 35 c-16 36 -29 158 -18 185 10 28 18 15 15 -27z m919 -72
c-6 -28 -17 -62 -25 -76 l-14 -25 5 30 c29 182 29 181 37 151 5 -17 3 -51 -3
-80z m-339 -207 c17 -6 31 -14 31 -17 0 -6 -275 -7 -305 -2 -5 1 8 8 30 15 49
17 201 19 244 4z m-16 -61 c22 -12 21 -12 -8 -19 -87 -19 -243 -3 -204 22 21
13 187 11 212 -3z m-257 -44 c41 -36 66 -44 138 -44 75 0 122 14 158 47 33 31
48 23 48 -27 0 -30 -8 -48 -31 -75 -17 -19 -39 -35 -49 -35 -11 0 -22 -4 -25
-10 -11 -17 -23 -11 -27 13 -3 19 -10 22 -60 25 -48 2 -58 0 -58 -13 0 -12 -6
-15 -20 -10 -10 3 -28 1 -39 -5 -17 -9 -24 -4 -50 34 -22 32 -31 56 -31 85 0
48 7 50 46 15z m-147 -224 c23 -27 62 -62 87 -76 47 -28 192 -77 204 -69 4 2
40 9 81 16 88 13 124 35 194 118 l50 60 6 -72 c3 -40 13 -96 23 -126 16 -45
17 -60 7 -93 -20 -64 -74 -108 -177 -145 -84 -30 -101 -33 -214 -33 -113 0
-127 2 -198 31 -98 39 -134 67 -163 125 l-22 47 28 51 c24 41 30 66 33 133 3
46 8 83 12 83 4 0 26 -22 49 -50z m-199 -137 c-15 -19 -19 -35 -15 -53 10 -40
64 -117 108 -155 37 -32 163 -99 261 -139 22 -9 37 -19 34 -22 -9 -8 -173 62
-250 107 -66 39 -113 88 -158 164 -13 22 -25 42 -26 43 -6 8 -90 -25 -304
-120 -273 -121 -250 -112 -250 -100 0 6 10 14 21 17 50 16 467 219 497 242 29
22 68 39 95 42 5 1 -1 -11 -13 -26z m999 -2 c14 -10 100 -55 191 -101 315
-159 355 -180 330 -174 -14 3 -128 57 -255 119 -210 104 -247 120 -281 116 -7
0 -31 -39 -54 -86 -24 -48 -54 -93 -69 -103 -36 -26 -259 -129 -296 -137 -16
-4 40 27 125 69 85 43 163 87 173 99 22 28 68 114 77 147 4 15 1 36 -7 54 -15
29 -15 29 13 22 15 -4 39 -15 53 -25z"/>
<path d="M2295 2678 c-11 -6 -21 -12 -22 -12 -1 -1 -9 -18 -18 -38 l-15 -37
47 16 c42 15 52 14 127 -2 44 -9 88 -21 98 -26 20 -11 28 6 21 43 -6 30 -13
34 -106 54 -81 17 -105 17 -132 2z"/>
<path d="M2765 2674 c-100 -17 -129 -29 -121 -50 3 -9 6 -23 6 -31 0 -11 6
-14 23 -8 124 38 212 41 248 9 10 -9 22 -14 25 -11 11 11 -6 58 -31 83 -27 27
-38 28 -150 8z"/>
<path d="M2331 2577 c-46 -23 -33 -32 49 -33 55 -1 80 2 77 10 -5 16 -48 36
-77 36 -14 0 -36 -6 -49 -13z"/>
<path d="M2741 2575 c-56 -25 -27 -36 70 -27 72 6 81 9 63 19 -37 21 -96 24
-133 8z"/>
<path d="M2615 1009 c-202 -6 -532 -34 -544 -45 -8 -8 405 -3 562 6 141 8 323
28 315 35 -11 9 -136 11 -333 4z"/>
<path d="M1675 1003 c-95 -6 -330 -34 -335 -40 -10 -11 477 7 559 21 45 8 86
17 89 20 5 6 -221 5 -313 -1z"/>
<path d="M3170 988 c-174 -17 -105 -26 205 -27 317 -1 505 7 480 22 -25 14
-550 17 -685 5z"/>
<path d="M1980 910 c-429 -8 -558 -16 -540 -34 12 -12 2019 -11 2180 1 176 13
25 25 -425 33 -501 9 -644 9 -1215 0z"/>
<path d="M2835 820 c-151 -7 -384 -35 -395 -47 -17 -18 636 28 670 48 17 10
-36 9 -275 -1z"/>
<path d="M1878 809 c-151 -7 -385 -34 -435 -49 -26 -8 -25 -8 12 -9 114 -3
470 23 610 43 l160 24 -100 -1 c-55 0 -166 -3 -247 -8z"/>
<path d="M3370 794 c-164 -25 -168 -34 -15 -28 158 6 497 32 504 39 11 12
-402 2 -489 -11z"/>
<path d="M1774 689 c-38 -4 -97 -15 -130 -23 -59 -15 -59 -15 76 -10 137 6
389 30 398 39 8 8 -266 3 -344 -6z"/>
<path d="M3200 684 c-224 -24 -210 -35 35 -29 215 6 365 18 422 35 47 14 -309
9 -457 -6z"/>
<path d="M2490 629 c-58 -5 -137 -15 -175 -23 l-70 -15 150 5 c176 6 336 22
350 35 11 11 -105 10 -255 -2z"/>
<path d="M1745 583 c-92 -6 -370 -43 -400 -53 -53 -17 279 -2 420 19 168 25
209 40 105 39 -41 -1 -97 -3 -125 -5z"/>
<path d="M2445 543 c-182 -14 -381 -37 -426 -48 l-54 -13 73 -1 c194 -3 584
38 610 64 6 5 -133 4 -203 -2z"/>
<path d="M2721 509 c-81 -16 -57 -21 59 -14 181 12 227 23 95 23 -60 0 -130
-4 -154 -9z"/>
<path d="M3570 499 c-134 -12 -344 -39 -377 -49 -41 -12 144 -12 292 0 145 12
316 39 330 51 11 11 -110 10 -245 -2z"/>
<path d="M1595 480 c-102 -8 -186 -24 -214 -40 -10 -6 9 -7 54 -4 98 7 254 34
261 45 3 5 4 8 2 8 -2 -1 -48 -5 -103 -9z"/>
<path d="M2043 429 c-189 -9 -322 -24 -337 -39 -23 -23 819 -5 1059 22 97 10
105 13 70 19 -51 10 -566 8 -792 -2z"/>
<path d="M3443 389 c-117 -17 -116 -28 2 -28 110 0 330 21 342 33 9 9 -272 5
-344 -5z"/>
<path d="M1465 369 c-49 -5 -103 -13 -120 -18 -37 -12 267 -13 335 -2 l45 8
-35 6 c-70 12 -137 14 -225 6z"/>
<path d="M2707 103 c-95 -4 -98 -5 -95 -26 3 -21 6 -22 138 -22 124 0 135 2
138 19 5 24 -15 36 -53 34 -16 -1 -74 -4 -128 -5z"/>
<path d="M2293 84 c-11 -28 13 -35 118 -32 99 3 104 4 107 26 3 22 2 22 -108
22 -91 0 -112 -3 -117 -16z"/>
</g>
</svg>